Patient4_TMGait_0pt3_01_right_12_GRF.mot
version=1
nRows=26
nColumns=19
inDegrees=no
endheader
time	F1x	F1y	F1z	M1x	M1y	M1z	F2x	F2y	F2z	M2x	M2y	M2z	EC1x	EC1y	EC1z	EC2x	EC2y	EC2z
21.34	-20.5533	879.286	64.948	-297.707	-63.8753	791.8242	5.417	-3.06	4.7568	-1.6808	-5.3537	-1.4052	-0.0592	0.0182	-0.0073	-0.0462	0.0165	0.9585
21.3588	-20.5401	887.514	65.2974	-299.9021	-63.7342	796.382	3.569	-1.3962	3.2442	-0.89931	-3.6151	-0.3424	-0.0592	0.0182	-0.0073	-0.0462	0.0165	0.9585
21.3776	-20.0839	892.2242	65.6132	-300.9036	-63.3574	797.2361	2.0021	0.041656	1.9258	-0.22233	-2.1115	0.59236	-0.0592	0.0182	-0.0073	-0.0462	0.0165	0.9585
21.3964	-19.0668	891.1652	65.7454	-299.9977	-62.6005	792.5281	0.80597	1.1638	0.8967	0.30652	-0.94206	1.336	-0.0592	0.0182	-0.0073	-0.0462	0.0165	0.9585
21.4151	-17.4406	882.914	65.5169	-296.7406	-61.3153	781.1427	-0.025643	1.9594	0.16848	0.68127	-0.11306	1.8758	-0.0592	0.0182	-0.0073	-0.0462	0.0165	0.9585
21.4339	-15.2124	867.2752	64.7662	-291.0956	-59.3812	763.0246	-0.54643	2.4508	-0.29437	0.9139	0.41452	2.2208	-0.0592	0.0182	-0.0073	-0.0462	0.0165	0.9585
21.4527	-12.4276	845.3421	63.3934	-283.4534	-56.7409	739.2049	-0.8317	2.6669	-0.54935	1.0208	0.70522	2.3819	-0.0592	0.0182	-0.0073	-0.0462	0.0165	0.9585
21.4715	-9.1256	819.2804	61.3911	-274.5519	-53.4104	711.5992	-0.95842	2.6239	-0.65884	1.0139	0.83208	2.3532	-0.0592	0.0182	-0.0073	-0.0462	0.0165	0.9585
21.4903	-5.3299	791.8722	58.8445	-265.3198	-49.4707	682.6234	-0.99121	2.3159	-0.67518	0.8957	0.85627	2.1083	-0.0592	0.0182	-0.0073	-0.0462	0.0165	0.9585
21.5091	-1.0956	765.9383	55.9169	-256.6816	-45.0713	654.7222	-0.97842	1.7148	-0.63455	0.65912	0.821	1.6067	-0.0592	0.0182	-0.0073	-0.0462	0.0165	0.9585
21.5279	3.4492	743.7984	52.8376	-249.381	-40.4347	629.9152	-0.94738	0.78308	-0.56219	0.29163	0.75316	0.80325	-0.0592	0.0182	-0.0073	-0.0462	0.0165	0.9585
21.5466	8.1459	726.955	49.8623	-243.8853	-35.8149	609.5216	-0.90171	-0.50533	-0.4728	-0.21635	0.66273	-0.33698	-0.0592	0.0182	-0.0073	-0.0462	0.0165	0.9585
21.5654	12.8692	716.0556	47.2089	-240.3785	-31.4325	594.1241	-0.82698	-2.1314	-0.36986	-0.85735	0.54518	-1.8035	-0.0592	0.0182	-0.0073	-0.0462	0.0165	0.9585
21.5842	17.5277	710.9205	45.0314	-238.7732	-27.4504	583.5978	-0.69769	-3.9855	-0.25204	-1.5876	0.38983	-3.4984	-0.0592	0.0182	-0.0073	-0.0462	0.0165	0.9585
21.603	22.0619	710.6638	43.4284	-238.7543	-23.9803	577.2178	-0.4839	-5.804	-0.11819	-2.3017	0.18479	-5.185	-0.0592	0.0182	-0.0073	-0.0462	0.0165	0.9585
21.6218	26.4369	713.9031	42.4416	-239.8512	-21.0819	573.8468	-0.15477	-7.1072	0.03071	-2.8084	-0.078971	-6.4248	-0.0592	0.0182	-0.0073	-0.0462	0.0165	0.9585
21.6406	30.6567	718.99	42.0577	-241.514	-18.7549	572.124	0.31853	-7.1336	0.18513	-2.8028	-0.39906	-6.5095	-0.0592	0.0182	-0.0073	-0.0462	0.0165	0.9585
21.6594	34.7749	724.2074	42.2374	-243.1726	-16.9585	570.6353	0.95107	-4.7925	0.3247	-1.8496	-0.75941	-4.4231	-0.0592	0.0182	-0.0073	-0.0462	0.0165	0.9585
21.6781	38.8325	727.911	42.9362	-244.2782	-15.6484	568.0789	1.7261	1.3281	0.40597	0.61483	-1.11	1.1446	-0.0592	0.0182	-0.0073	-0.0462	0.0165	0.9585
21.6969	42.7888	728.6804	44.0609	-244.3568	-14.7685	563.4073	2.5737	12.864	0.35689	5.2429	-1.3495	11.7158	-0.0592	0.0182	-0.0073	-0.0462	0.0165	0.9585
21.7157	46.5122	725.4043	45.4244	-243.0413	-14.2204	555.889	3.3442	31.4375	0.08066	12.6785	-1.3236	28.8153	-0.0592	0.0182	-0.0073	-0.0462	0.0165	0.9585
21.7345	49.7787	717.2075	46.7742	-240.038	-13.8848	545.0416	3.7731	58.2193	-0.54353	23.3819	-0.81286	53.5639	-0.0592	0.0182	-0.0073	-0.0462	0.0165	0.9585
21.7533	52.2502	703.3007	47.8512	-235.0681	-13.677	530.5022	3.4225	93.2823	-1.6445	37.3718	0.47615	86.0755	-0.0592	0.0182	-0.0073	-0.0462	0.0165	0.9585
21.7721	53.5357	683.0718	48.4157	-227.9097	-13.5574	512.0654	1.7356	134.8374	-3.3042	53.9215	2.8344	124.7479	-0.0592	0.0182	-0.0073	-0.0462	0.0165	0.9585
21.7909	53.3424	656.4819	48.284	-218.5441	-13.5044	489.9033	-1.4088	179.096	-5.5622	71.4967	6.3364	166.1217	-0.0592	0.0182	-0.0073	-0.0462	0.0165	0.9585
21.8096	51.6737	624.5104	47.3968	-207.312	-13.4885	464.8	-5.6798	222.3388	-8.3955	88.5818	10.8181	206.7687	-0.0592	0.0182	-0.0073	-0.0462	0.0165	0.9585
